<svg id="svg" version="1.1" xmlns="http://www.w3.org/2000/svg" xmlns:xlink="http://www.w3.org/1999/xlink" width="400" height="400" viewBox="0, 0, 400,400"><g id="svgg"><path id="path0" d="M127.462 103.823 C 100.292 107.129,79.739 125.979,76.475 150.585 L 76.021 154.010 72.954 154.694 C 60.863 157.388,49.841 166.280,44.279 177.828 C 42.075 182.404,41.845 182.194,46.825 180.166 C 53.879 177.294,56.782 176.713,64.015 176.729 C 72.065 176.746,73.165 177.096,80.462 181.968 C 95.851 192.242,103.228 203.993,114.371 235.985 C 128.241 275.803,136.306 289.348,154.744 303.788 C 172.015 317.314,186.832 323.014,209.848 324.985 C 214.744 325.404,219.688 325.831,220.833 325.933 C 222.420 326.075,219.970 325.138,210.553 322.004 C 190.982 315.489,181.993 310.599,171.481 300.750 C 126.799 258.886,137.214 171.273,189.274 151.075 L 190.858 150.460 189.806 147.105 C 180.523 117.487,155.863 100.367,127.462 103.823 M144.608 109.073 C 163.295 112.881,177.357 125.621,184.232 144.971 L 185.204 147.708 181.136 149.789 C 150.142 165.643,133.204 207.376,140.398 250.166 C 144.664 275.545,157.930 297.518,177.462 311.556 C 181.146 314.204,180.125 313.970,173.864 310.732 C 146.779 296.727,134.480 280.056,119.696 237.311 C 107.310 201.497,99.551 189.018,82.824 178.009 C 74.732 172.683,73.192 172.202,64.205 172.198 C 59.317 172.196,56.664 172.364,54.835 172.792 L 52.284 173.390 53.385 172.017 C 58.868 165.179,67.512 160.132,76.138 158.732 C 81.174 157.915,80.682 158.278,80.683 155.391 C 80.698 131.347,101.428 111.469,129.924 108.175 C 132.829 107.839,141.009 108.339,144.608 109.073 M361.174 113.486 C 355.758 114.190,344.081 115.621,335.227 116.667 C 287.686 122.282,264.205 127.181,239.081 136.725 C 205.786 149.374,176.403 171.148,164.408 192.060 C 146.970 222.461,150.910 262.468,172.658 275.835 L 174.942 277.239 177.146 274.510 C 190.815 257.586,206.872 242.062,219.129 233.921 C 225.466 229.712,242.045 220.674,242.045 221.429 C 242.045 221.551,240.789 223.133,239.252 224.944 C 220.026 247.605,202.389 275.104,195.249 293.553 C 193.797 297.304,193.747 297.131,197.215 300.375 C 220.305 321.974,263.141 312.138,290.237 279.014 C 306.492 259.142,315.219 234.763,316.669 205.174 C 318.638 164.977,324.095 145.223,337.450 129.946 C 342.722 123.916,347.583 121.116,361.553 116.066 C 372.176 112.227,372.339 112.163,371.591 112.188 C 371.278 112.198,366.591 112.782,361.174 113.486 M338.525 122.524 C 322.731 135.389,314.274 160.635,312.319 200.758 C 310.957 228.727,306.280 245.859,294.905 264.553 C 271.487 303.038,225.340 319.304,200.996 297.654 L 199.150 296.013 200.540 292.655 C 209.972 269.871,232.060 238.488,259.446 208.961 L 260.795 207.506 259.470 208.069 C 256.884 209.169,237.999 218.114,233.491 220.375 C 213.301 230.499,197.993 243.044,179.418 264.686 L 173.803 271.228 172.341 270.070 C 155.306 256.578,153.198 220.849,167.920 195.132 C 179.403 175.073,206.251 154.735,237.887 142.129 C 260.531 133.106,286.479 127.191,322.917 122.745 C 326.458 122.313,331.231 121.725,333.523 121.439 C 335.814 121.152,338.344 120.899,339.145 120.876 L 340.600 120.833 338.525 122.524 " stroke="none" fill="#070707" fill-rule="evenodd"></path><path id="path1" d="M0.000 200.000 L 0.000 400.000 200.000 400.000 L 400.000 400.000 400.000 200.000 L 400.000 0.000 200.000 0.000 L 0.000 0.000 0.000 200.000 M144.375 104.145 C 165.531 107.769,181.827 122.648,189.393 145.247 C 191.282 150.890,191.323 150.505,188.731 151.535 C 137.586 171.846,127.347 258.031,171.091 300.017 C 181.855 310.349,190.424 315.060,210.417 321.639 C 223.434 325.922,223.737 326.029,223.453 326.271 C 223.260 326.435,204.970 324.845,200.039 324.235 C 179.051 321.639,155.205 307.935,139.762 289.597 C 131.678 279.997,125.044 266.701,116.980 243.939 C 107.095 216.040,103.766 208.324,97.687 199.227 C 91.845 190.485,80.249 180.448,73.144 177.984 C 66.099 175.540,56.335 176.477,46.474 180.541 C 41.441 182.615,41.613 182.810,44.074 177.807 C 49.948 165.869,60.158 157.609,72.940 154.454 L 76.136 153.665 76.136 152.261 C 76.136 151.489,76.386 149.427,76.691 147.679 C 81.678 119.079,113.198 98.806,144.375 104.145 M125.583 108.910 C 100.109 113.052,82.707 130.981,80.871 154.974 L 80.621 158.244 78.663 158.495 C 69.800 159.632,62.876 162.974,56.345 169.264 C 52.365 173.097,52.360 173.119,55.587 172.484 C 64.357 170.756,73.824 171.904,79.034 175.326 C 80.253 176.127,82.528 177.598,84.091 178.596 C 99.524 188.450,107.609 201.839,120.461 238.826 C 134.822 280.154,146.631 295.993,173.979 310.605 C 178.721 313.139,178.840 312.924,174.508 309.648 C 144.771 287.162,131.536 242.968,142.257 201.952 C 148.626 177.589,164.881 156.313,183.090 148.508 C 185.225 147.593,185.223 147.977,183.122 142.746 C 173.253 118.172,150.588 104.844,125.583 108.910 M372.721 112.027 C 372.718 112.183,368.018 114.009,362.277 116.085 C 347.273 121.510,343.852 123.428,338.028 129.677 C 325.013 143.642,318.654 165.749,317.034 202.652 C 315.958 227.182,311.504 244.320,301.333 263.068 C 277.143 307.658,223.511 326.434,196.365 299.817 C 193.494 297.001,193.517 297.204,195.508 292.306 C 203.502 272.638,215.964 253.458,240.491 223.076 L 241.399 221.952 238.827 223.106 C 218.180 232.369,200.550 246.903,179.554 271.970 C 174.442 278.074,175.166 277.713,172.051 275.702 C 149.972 261.441,146.771 219.905,165.437 189.879 C 179.559 167.163,211.960 145.223,249.811 132.747 C 272.482 125.274,291.769 121.637,338.068 116.105 C 354.712 114.117,365.513 112.759,372.443 111.782 C 372.599 111.760,372.725 111.870,372.721 112.027 M327.765 122.350 C 286.093 127.424,261.608 132.892,237.588 142.489 C 210.068 153.484,184.504 171.569,172.253 188.708 C 154.141 214.045,153.543 252.153,171.001 268.484 C 174.108 271.390,173.164 271.827,179.167 264.715 C 197.165 243.391,212.841 230.536,233.433 220.212 C 242.083 215.876,260.713 207.178,260.916 207.381 C 261.014 207.479,259.237 209.528,256.968 211.934 C 252.579 216.587,252.431 216.757,243.904 226.929 C 224.171 250.468,208.135 274.845,200.924 292.264 C 199.318 296.145,199.276 295.977,202.513 298.647 C 224.543 316.818,265.346 304.596,289.044 272.727 C 304.164 252.394,310.808 231.671,312.119 200.758 C 313.765 161.925,322.245 136.171,337.744 122.941 C 339.101 121.782,340.071 120.851,339.898 120.872 C 339.725 120.893,334.265 121.558,327.765 122.350 " stroke="none" fill="#fbfbfb" fill-rule="evenodd"></path><path id="path2" d="M173.485 119.129 C 174.192 119.858,174.855 120.455,174.959 120.455 C 175.063 120.455,174.570 119.858,173.864 119.129 C 173.157 118.400,172.493 117.803,172.389 117.803 C 172.285 117.803,172.778 118.400,173.485 119.129 M335.227 125.189 C 334.307 126.127,333.640 126.894,333.744 126.894 C 333.848 126.894,334.686 126.127,335.606 125.189 C 336.526 124.252,337.194 123.485,337.090 123.485 C 336.985 123.485,336.147 124.252,335.227 125.189 M55.853 169.413 L 54.356 171.023 55.966 169.525 C 57.463 168.133,57.750 167.803,57.463 167.803 C 57.401 167.803,56.677 168.527,55.853 169.413 M89.757 189.489 C 91.327 191.161,91.667 191.462,91.667 191.177 C 91.667 191.117,90.857 190.307,89.867 189.378 L 88.068 187.689 89.757 189.489 M317.133 197.348 C 317.133 198.078,317.211 198.376,317.307 198.011 C 317.402 197.647,317.402 197.050,317.307 196.686 C 317.211 196.321,317.133 196.619,317.133 197.348 M153.165 232.765 C 153.164 234.640,153.228 235.455,153.307 234.576 C 153.387 233.697,153.387 232.163,153.309 231.167 C 153.231 230.171,153.166 230.890,153.165 232.765 M158.091 232.955 C 158.091 234.934,158.155 235.743,158.233 234.754 C 158.311 233.764,158.311 232.145,158.233 231.155 C 158.155 230.166,158.091 230.975,158.091 232.955 M196.584 252.936 L 192.614 257.008 196.686 253.037 C 198.925 250.853,200.758 249.021,200.758 248.965 C 200.758 248.692,200.272 249.153,196.584 252.936 M279.913 283.239 L 277.462 285.795 280.019 283.344 C 282.394 281.068,282.749 280.682,282.470 280.682 C 282.412 280.682,281.261 281.832,279.913 283.239 M196.023 299.621 C 196.836 300.455,197.587 301.136,197.692 301.136 C 197.796 301.136,197.215 300.455,196.402 299.621 C 195.588 298.788,194.837 298.106,194.733 298.106 C 194.628 298.106,195.209 298.788,196.023 299.621 M163.636 299.725 C 163.636 299.783,164.957 301.104,166.572 302.661 L 169.508 305.492 166.676 302.557 C 164.046 299.830,163.636 299.448,163.636 299.725 " stroke="none" fill="#a0a0a0" fill-rule="evenodd"></path><path id="path3" d="M133.617 108.222 C 134.086 108.312,134.853 108.312,135.322 108.222 C 135.791 108.132,135.407 108.058,134.470 108.058 C 133.532 108.058,133.149 108.132,133.617 108.222 M143.299 230.871 C 143.301 232.121,143.372 232.587,143.456 231.906 C 143.541 231.225,143.539 230.203,143.452 229.633 C 143.366 229.064,143.297 229.621,143.299 230.871 " stroke="none" fill="#7c7c7c" fill-rule="evenodd"></path><path id="path4" d="M170.265 122.727 C 171.291 123.769,172.216 124.621,172.320 124.621 C 172.424 124.621,171.670 123.769,170.644 122.727 C 169.618 121.686,168.693 120.833,168.589 120.833 C 168.485 120.833,169.239 121.686,170.265 122.727 M167.783 165.057 L 166.477 166.477 167.898 165.172 C 168.679 164.454,169.318 163.815,169.318 163.751 C 169.318 163.462,168.998 163.735,167.783 165.057 M52.252 166.193 L 50.947 167.614 52.367 166.308 C 53.690 165.093,53.962 164.773,53.673 164.773 C 53.609 164.773,52.970 165.412,52.252 166.193 M178.389 174.148 L 177.083 175.568 178.504 174.263 C 179.285 173.545,179.924 172.906,179.924 172.842 C 179.924 172.553,179.604 172.826,178.389 174.148 M175.166 177.367 L 174.053 178.598 175.284 177.486 C 175.961 176.874,176.515 176.320,176.515 176.255 C 176.515 175.962,176.203 176.220,175.166 177.367 M312.217 199.811 C 312.221 200.644,312.299 200.940,312.389 200.469 C 312.480 199.998,312.476 199.316,312.381 198.954 C 312.287 198.592,312.213 198.977,312.217 199.811 M316.755 203.788 C 316.755 204.517,316.832 204.815,316.928 204.451 C 317.023 204.086,317.023 203.490,316.928 203.125 C 316.832 202.760,316.755 203.059,316.755 203.788 M143.277 227.462 C 143.282 228.295,143.359 228.592,143.450 228.121 C 143.540 227.649,143.537 226.968,143.442 226.605 C 143.347 226.243,143.273 226.629,143.277 227.462 M143.277 234.280 C 143.282 235.114,143.359 235.410,143.450 234.939 C 143.540 234.468,143.537 233.786,143.442 233.424 C 143.347 233.061,143.273 233.447,143.277 234.280 M193.173 249.527 L 189.962 252.841 193.277 249.630 C 196.355 246.647,196.763 246.212,196.488 246.212 C 196.431 246.212,194.940 247.704,193.173 249.527 M283.333 286.553 C 282.413 287.491,281.746 288.258,281.850 288.258 C 281.954 288.258,282.792 287.491,283.712 286.553 C 284.632 285.616,285.300 284.848,285.196 284.848 C 285.091 284.848,284.253 285.616,283.333 286.553 M148.674 292.424 C 149.700 293.466,150.625 294.318,150.729 294.318 C 150.833 294.318,150.079 293.466,149.053 292.424 C 148.027 291.383,147.102 290.530,146.998 290.530 C 146.894 290.530,147.648 291.383,148.674 292.424 " stroke="none" fill="#747474" fill-rule="evenodd"></path></g></svg>